<svg clip-rule="evenodd" fill-rule="evenodd" height="512" image-rendering="optimizeQuality" shape-rendering="geometricPrecision" text-rendering="geometricPrecision" viewBox="0 0 512 512" width="512" xmlns="http://www.w3.org/2000/svg"><g id="Layer_x0020_1"><path d="m256 260-216-117v230l215 117zm248 251h-73c-10 0-10-15 0-15h66v-66c0-10 15-10 15 0v73c0 5-4 8-8 8zm-423 0h-74c-4 0-7-3-7-7v-74c0-10 15-10 15 0v67h66c10 0 11 14 0 14zm423-422c-4 0-7-4-7-7v-67h-67c-9 0-10-14 0-14h74c4 0 8 3 8 7v74c0 3-4 7-8 7zm-497 0c-4 0-7-4-7-7v-74c0-4 3-7 7-7h74c11 0 10 14 0 14h-66v67c0 3-3 7-8 7zm19 44c-2-4 1-8 5-9l225-120c2-1 5-1 7 0l215 125c4 0 7 3 7 7l2 246c0 3-1 5-4 6l-215 118c-3 3-3 5-10 2l-229-124c-2-1-4-4-4-6zm445 15-200 112-1 230 202-111zm-423-17 215 116 200-111-204-118z" fill="#52050d"/><path d="m48 131 215 116 200-111-204-118z" fill="#ffd300"/><g fill="#ff4500"><path d="m271 260-1 230 202-111-1-231z"/><path d="m255 490 1-230-216-117v230z"/></g></g></svg>