<svg id="Picture" enable-background="new 0 0 64 64" viewBox="0 0 64 64" xmlns="http://www.w3.org/2000/svg"><g><path d="m60.82006 63.97959h-57.65392c-1.74678 0-3.16283-1.41605-3.16283-3.16283v-57.65393c0-1.74678 1.41605-3.16283 3.16283-3.16283h57.65392c1.74678 0 3.16283 1.41605 3.16283 3.16283v57.65392c.00001 1.74679-1.41604 3.16284-3.16283 3.16284z" fill="#59b7ea"/><circle cx="19.777" cy="14.838" fill="#f9f4f4" r="7.12"/><path d="m40.83139 64h-37.65331c-1.7662 0-3.17401-1.43343-3.17401-3.17416v-15.07655l10.3924-11.62116c.99832-1.12627 2.7389-1.12627 3.73722 0l10.11087 11.31401z" fill="#fcdd5e"/><path d="m63.99669 42.60075v18.22509c0 1.74073-1.43343 3.17416-3.17401 3.17416h-52.52519l15.94707-18.55786 19.19778-22.29508c.99817-1.17752 2.81561-1.17752 3.81394 0z" fill="#ffec9c"/></g></svg>