<svg id="Layer_1" enable-background="new 0 0 100 100" viewBox="0 0 100 100" xmlns="http://www.w3.org/2000/svg" xmlns:xlink="http://www.w3.org/1999/xlink"><linearGradient id="lg1"><stop offset=".1843576" stop-color="#29abe2"/><stop offset=".8211977" stop-color="#6200d2"/></linearGradient><linearGradient id="SVGID_1_" gradientUnits="userSpaceOnUse" x1="10.544" x2="115.807" xlink:href="#lg1" y1="-16.287" y2="91.81"/><linearGradient id="SVGID_00000161630809610674702760000017413834473765657756_" gradientUnits="userSpaceOnUse" x1="6.21" x2="111.473" xlink:href="#lg1" y1="-12.067" y2="96.031"/><linearGradient id="SVGID_00000129906354181520854670000016843901486674870461_" gradientUnits="userSpaceOnUse" x1="14.868" x2="120.132" xlink:href="#lg1" y1="-20.498" y2="87.599"/><linearGradient id="SVGID_00000021804462952880296760000005330477222803509377_" gradientUnits="userSpaceOnUse" x1="-6.809" x2="98.454" xlink:href="#lg1" y1=".611" y2="108.708"/><g><path d="m72.9937592 27.0062389-.0000076.0000095c-1.1010666 1.1010704-1.1377716 2.8434677-.1428528 4.041317 4.2698974 5.1407967 6.8366012 11.7466469 6.8366012 18.9524346 0 7.2059784-2.5668411 13.8119926-6.8361359 18.9536591-.994606 1.1978455-.9577255 2.9399796.1431961 4.0409088h.0000076c1.2471924 1.2471924 3.2841949 1.1249237 4.4116898-.2314377 5.1319275-6.1736374 8.2187424-14.1080361 8.2187424-22.7631302 0-8.6552353-3.0869141-16.5897636-8.2198029-22.7626362-1.1276016-1.3560657-3.16436-1.4782009-4.4114379-.2311249z" fill="url(#SVGID_1_)"/><path d="m73.75 50c0-5.3605537-1.7761917-10.3062172-4.7716141-14.2806625-1.0709763-1.4210167-3.1759186-1.5218048-4.4341431-.2635765l-.0048904.0048866c-1.0489426 1.0489426-1.1488953 2.7008476-.2608871 3.889122 2.2198181 2.9704094 3.5340347 6.6569061 3.5340347 10.6502304 0 3.9935875-1.3143921 7.6803055-3.5338364 10.6514511-.8876076 1.1882286-.7874184 2.8397942.261322 3.8885422l.0048981.0048904c1.2583923 1.2583923 3.363678 1.1573868 4.434494-.2640381 2.9945679-3.9750137 4.7706223-8.9204979 4.7706223-14.2808456z" fill="url(#SVGID_00000161630809610674702760000017413834473765657756_)"/><path d="m81.4141083 18.5858955-.0005798.0005779c-1.1125717 1.1125736-1.1480103 2.8860741-.1123199 4.0705509 6.3895263 7.3074513 10.2612914 16.8731118 10.2612914 27.3429757 0 10.470005-3.8718719 20.0357819-10.2606583 27.3441772-1.0354462 1.1844864-.9998779 2.9577866.112587 4.0702515l.0005875.0005875c1.2064056 1.2064133 3.1951218 1.1641541 4.3196182-.1189499 7.3251266-8.3583222 11.7653656-19.3084831 11.7653656-31.2960663 0-11.987709-4.4403381-22.9379826-11.76651-31.2954178-1.1245575-1.2828617-3.1130753-1.3249988-4.3193817-.1186867z" fill="url(#SVGID_00000129906354181520854670000016843901486674870461_)"/><path d="m48.7697525 3.7302504-22.5197506 22.5197496h-17.8125c-3.278687 0-5.9375 2.6588097-5.9375 5.9375v35.625c0 3.2786865 2.658813 5.9375 5.9375 5.9375h17.8125l22.5197506 22.5197449c.7873077.7873153 1.8548737 1.2302551 2.96875 1.2302551 2.3191833 0 4.1989975-1.8798141 4.1989975-4.1990051v-86.6019945c0-2.3191877-1.8798141-4.1990004-4.1989975-4.1990004-1.11269 0-2.1802559.4417496-2.96875 1.2302504z" fill="url(#SVGID_00000021804462952880296760000005330477222803509377_)"/></g></svg>