<svg viewBox="0 0 64 64" xmlns="http://www.w3.org/2000/svg"><g id="Layer_2" fill="#0072ff" data-name="Layer 2"><path d="m51.3 20h1.81a1.2 1.2 0 0 0 .89-2.06l-11.93-11.89a1.2 1.2 0 0 0 -2.07.85v1.81a11.29 11.29 0 0 0 11.3 11.29z"/><path d="m51.3 24a15.29 15.29 0 0 1 -15.3-15.29 4.71 4.71 0 0 0 -4.7-4.71h-12a11.29 11.29 0 0 0 -11.3 11.29v33.42a11.29 11.29 0 0 0 11.3 11.29h25.43a11.29 11.29 0 0 0 11.27-11.29v-20a4.71 4.71 0 0 0 -4.7-4.71zm-25 6.45a1.3 1.3 0 0 1 -.07.32.43.43 0 0 1 -.12.18.25.25 0 0 1 -.11.05h-3.17v10.2a.27.27 0 0 1 -.06.18.44.44 0 0 1 -.21.13 2 2 0 0 1 -.4.08 6.58 6.58 0 0 1 -1.24 0 2 2 0 0 1 -.4-.08.44.44 0 0 1 -.21-.13.27.27 0 0 1 -.06-.18v-10.2h-3.16a.25.25 0 0 1 -.17-.06.46.46 0 0 1 -.12-.18 1.3 1.3 0 0 1 -.07-.32 4.09 4.09 0 0 1 0-.48 4.34 4.34 0 0 1 0-.5 1.32 1.32 0 0 1 .07-.33.42.42 0 0 1 .12-.18.26.26 0 0 1 .17-.05h8.91a.27.27 0 0 1 .16.05.4.4 0 0 1 .12.18 1.32 1.32 0 0 1 .07.33 4.34 4.34 0 0 1 0 .5 4.09 4.09 0 0 1 0 .49zm10.7 10.99a.74.74 0 0 1 -.42.14q-.31 0-.85 0h-.72a2.09 2.09 0 0 1 -.42-.06.45.45 0 0 1 -.22-.12.71.71 0 0 1 -.12-.2l-2.37-4.56-2.36 4.56a.92.92 0 0 1 -.13.2.45.45 0 0 1 -.22.12 2.11 2.11 0 0 1 -.42.06h-.71q-.51 0-.79 0a.59.59 0 0 1 -.38-.14.31.31 0 0 1 0-.31 3 3 0 0 1 .24-.55l3-5.52-2.81-5.19a3.81 3.81 0 0 1 -.24-.56.28.28 0 0 1 0-.31.72.72 0 0 1 .42-.13h.86.73a2.28 2.28 0 0 1 .42.06.43.43 0 0 1 .22.12 1.08 1.08 0 0 1 .12.2l2.22 4.18 2.16-4.18a1.08 1.08 0 0 1 .12-.2.42.42 0 0 1 .21-.12 1.91 1.91 0 0 1 .39-.06h.69.77a.63.63 0 0 1 .39.13.31.31 0 0 1 .05.31 3.43 3.43 0 0 1 -.22.56l-2.73 5.13 3 5.55a2.9 2.9 0 0 1 .23.55.29.29 0 0 1 -.11.34zm10.23-11a1.3 1.3 0 0 1 -.07.32.43.43 0 0 1 -.12.18.25.25 0 0 1 -.16.06h-3.13v10.2a.27.27 0 0 1 -.06.18.44.44 0 0 1 -.21.13 2 2 0 0 1 -.4.08 6.58 6.58 0 0 1 -1.24 0 2 2 0 0 1 -.4-.08.44.44 0 0 1 -.21-.13.27.27 0 0 1 -.06-.18v-10.2h-3.17a.25.25 0 0 1 -.17-.06.46.46 0 0 1 -.12-.18 1.3 1.3 0 0 1 -.07-.32 4.09 4.09 0 0 1 0-.48 4.34 4.34 0 0 1 0-.5 1.32 1.32 0 0 1 .07-.33.42.42 0 0 1 .12-.18.26.26 0 0 1 .17-.05h8.91a.27.27 0 0 1 .16.05.4.4 0 0 1 .12.18 1.32 1.32 0 0 1 .07.33 4.34 4.34 0 0 1 0 .5 4.09 4.09 0 0 1 .01.49z"/></g></svg>