<svg height="496pt" viewBox="0 -72 496 496" width="496pt" xmlns="http://www.w3.org/2000/svg"><path d="m224 152-64 32v-64zm0 0" fill="#f1f2f2"/><path d="m496 32v288l-112-64v-160zm0 0" fill="#e93d5b"/><path d="m384 256v72c0 13.253906-10.746094 24-24 24h-336c-13.253906 0-24-10.746094-24-24v-304c0-13.253906 10.746094-24 24-24h336c13.253906 0 24 10.746094 24 24zm-224-72 64-32-64-32zm0 0" fill="#fa5c66"/><path d="m336 280h-224v-8c0-4.417969-3.582031-8-8-8s-8 3.582031-8 8v8h-48c-4.417969 0-8 3.582031-8 8s3.582031 8 8 8h48v8c0 4.417969 3.582031 8 8 8s8-3.582031 8-8v-8h224c4.417969 0 8-3.582031 8-8s-3.582031-8-8-8zm0 0" fill="#f1f2f2"/></svg>