<svg id="Layer_1" enable-background="new 0 0 56 64" height="64" viewBox="0 0 56 64" width="56" xmlns="http://www.w3.org/2000/svg"><g id="File_38_"><g><path d="m52 0h-48c-2.209 0-4 1.79-4 4v56c0 2.209 1.791 4 4 4h34l18-18v-42c0-2.21-1.791-4-4-4z" fill="#48a0dc"/></g></g><g id="Corner_7_"><g><path d="m42 45.999c-2.208 0-4 1.792-4 4.001v14l18-18.001z" fill="#387ba8"/></g></g><g id="Word"><g><path d="m37.467 15.997-2.741 13.351c-.157.753-.254 1.498-.291 2.232h-.056c-.092-.939-.198-1.655-.318-2.147l-3.253-13.436h-4.79l-3.6 13.267c-.23.848-.365 1.628-.401 2.344h-.083c-.055-.957-.143-1.72-.263-2.287l-2.796-13.323h-4.887l5.219 20.005h5.164l3.378-12.835c.157-.585.277-1.334.36-2.245h.056c.037.827.143 1.576.318 2.245l3.295 12.835h4.957l5.247-20.005h-4.515z" fill="#fff"/></g></g><g/><g/><g/><g/><g/><g/><g/><g/><g/><g/><g/><g/><g/><g/><g/></svg>