<svg id="Layer_1" enable-background="new 0 0 24 24" viewBox="0 0 24 24" xmlns="http://www.w3.org/2000/svg"><g id="Layer_2_1_"><g id="COLORFUL"><g id="Archive_File"><path d="m21 6v15c0 1.7-1.3 3-3 3h-12c-1.7 0-3-1.3-3-3v-18c0-1.7 1.3-3 3-3h9z" fill="#021785"/><path d="m15 0v4c0 1.1.9 2 2 2h4z" fill="#6c85ef"/><g fill="#fff"><path d="m13.5 16h-1.5v-1h-1.5c-.3 0-.5.2-.5.5v5c0 .3.2.5.5.5h3c.3 0 .5-.2.5-.5v-4c0-.3-.2-.5-.5-.5zm-1 4h-1c-.3 0-.5-.2-.5-.5s.2-.5.5-.5h1c.3 0 .5.2.5.5s-.2.5-.5.5z"/><path d="m10.5 13c-.3 0-.5.2-.5.5s.2.5.5.5h1.5v-1z"/><path d="m10.5 11c-.3 0-.5.2-.5.5s.2.5.5.5h1.5v-1z"/><path d="m10.5 9c-.3 0-.5.2-.5.5s.2.5.5.5h1.5v-1z"/><path d="m10.5 7c-.3 0-.5.2-.5.5s.2.5.5.5h1.5v-1z"/><path d="m10.5 5c-.3 0-.5.2-.5.5s.2.5.5.5h1.5v-1z"/><path d="m10.5 3c-.3 0-.5.2-.5.5s.2.5.5.5h1.5v-1z"/><path d="m10.5 1c-.3 0-.5.2-.5.5s.2.5.5.5h1.5v-1z"/><path d="m13.5 14c.3 0 .5.2.5.5s-.2.5-.5.5h-1.5v-1z"/><path d="m13.5 12c.3 0 .5.2.5.5s-.2.5-.5.5h-1.5v-1z"/><path d="m13.5 10c.3 0 .5.2.5.5s-.2.5-.5.5h-1.5v-1z"/><path d="m13.5 8c.3 0 .5.2.5.5s-.2.5-.5.5h-1.5v-1z"/><path d="m13.5 6c.3 0 .5.2.5.5s-.2.5-.5.5h-1.5v-1z"/><path d="m13.5 4c.3 0 .5.2.5.5s-.2.5-.5.5h-1.5v-1z"/><path d="m13.5 2c.3 0 .5.2.5.5s-.2.5-.5.5h-1.5v-1z"/></g></g></g></g></svg>