<?xml version="1.0" encoding="UTF-8"?>
<svg id="Layer_1" data-name="Layer 1" xmlns="http://www.w3.org/2000/svg" viewBox="0 0 262.2 300">
  <defs>
    <style>
      .cls-1 {
        fill: #ff7b31;
      }

      .cls-2 {
        fill: #ff7c6c;
      }

      .cls-3 {
        fill: #eb5443;
      }

      .cls-4 {
        fill: #fff;
      }

      .cls-5 {
        fill: #ffccbc;
      }

      .cls-6 {
        fill: #d64b3c;
      }

      .cls-7 {
        fill: #ffac49;
      }

      .cls-8 {
        fill: #102a49;
      }
    </style>
  </defs>
  <path class="cls-5" d="M230.51,96.59c16.33,20.95,26.19,47.19,26.57,75.72.47,35.72-27.34,64.98-63.34,65.03-28.92.04-53.34-19.27-61.02-45.72,32.6-31.67,65.19-63.35,97.79-95.03h0Z"/>
  <path class="cls-1" d="M131.1,139.01l22.47-27.17,28.84-52.95c-32.34-14.43-70.28-14.43-102.61,0l28.84,52.95,22.47,27.17h0Z"/>
  <path class="cls-1" d="M132.73,191.62l-1.63,1.58-1.63-1.58c-12.54,43.19-76.64,61.64-112.72,35.37,13.38,28.83,37.36,51.76,66.93,63.78v-16.24c22.85,17.21,47.42,25.48,47.42,25.48,0,0,24.57-8.27,47.42-25.48v16.24c29.57-12.02,53.54-34.94,66.93-63.78-36.08,26.27-100.18,7.82-112.72-35.37h0Z"/>
  <polygon class="cls-7" points="131.1 139.01 199.19 56.68 207.36 0 262.2 65.8 131.1 193.2 0 65.8 54.84 0 63.02 56.68 131.1 139.01"/>
  <path class="cls-8" d="M214.89,111.77c10.69,13.71,17.15,30.9,17.4,49.58.31,23.39-17.9,42.55-41.47,42.58-18.93.03-34.92-12.62-39.95-29.93,21.34-20.74,42.69-41.48,64.03-62.22h0Z"/>
  <path class="cls-4" d="M204.93,131.47c6.13,7.85,9.82,17.69,9.96,28.39.15,11.3-7.25,20.88-17.68,23.6,3.46-4.25,5.49-9.73,5.41-15.7-.13-9.65-3.15-18.61-8.24-26.04l10.55-10.25h0Z"/>
  <circle class="cls-4" cx="186.68" cy="159.82" r="11.95" transform="translate(5.25 325.57) rotate(-82.98)"/>
  <circle class="cls-4" cx="175.7" cy="182.66" r="4.89"/>
  <path class="cls-5" d="M31.69,96.59c-16.33,20.95-26.19,47.19-26.57,75.72-.47,35.72,27.34,64.98,63.34,65.03,28.92.04,53.34-19.27,61.02-45.72-32.6-31.67-65.19-63.35-97.79-95.03h0Z"/>
  <path class="cls-8" d="M47.31,111.77c-10.69,13.71-17.15,30.9-17.4,49.58-.31,23.39,17.9,42.55,41.47,42.58,18.93.03,34.92-12.62,39.95-29.93-21.35-20.74-42.69-41.48-64.03-62.22h0Z"/>
  <path class="cls-4" d="M57.27,131.47c-6.13,7.85-9.82,17.69-9.96,28.39-.15,11.3,7.25,20.88,17.68,23.6-3.46-4.25-5.49-9.73-5.41-15.7.13-9.65,3.15-18.61,8.24-26.04l-10.55-10.25h0Z"/>
  <circle class="cls-4" cx="75.52" cy="159.82" r="11.95"/>
  <circle class="cls-4" cx="86.5" cy="182.66" r="4.89"/>
  <path class="cls-3" d="M131.1,188.07c24.14,14.84,28.84,25.11,0,88.16-28.84-63.05-24.14-73.32,0-88.16h0Z"/>
  <path class="cls-3" d="M83.68,267.15c-16.7-6.79-31.61-17.05-43.84-29.89-8.35-1.9-16.23-5.28-23.09-10.28,13.38,28.83,37.36,51.76,66.93,63.78v-16.24c22.85,17.21,47.42,25.48,47.42,25.48,0,0,24.57-8.27,47.42-25.48v16.24c29.57-12.02,53.54-34.94,66.93-63.78-6.86,5-14.74,8.38-23.09,10.28-12.23,12.84-27.14,23.11-43.84,29.89v-16.24c-22.85,17.21-47.42,25.48-47.42,25.48,0,0-24.57-8.27-47.42-25.48v16.24h0Z"/>
  <path class="cls-3" d="M251.36,52.79l-120.26,116.87L10.84,52.79,0,65.8l31.69,30.79,15.62,15.18,64.03,62.23,16.56,16.1c1.02-.67,2.09-1.34,3.2-2.02,1.11.68,2.18,1.35,3.2,2.02l16.56-16.1,64.03-62.23,15.62-15.18,31.69-30.79-10.84-13.01Z"/>
  <path class="cls-3" d="M164.68,53.39c0,19.41-15.04,35.14-33.58,35.14s-33.58-15.73-33.58-35.14c0-.28,0-.55.01-.83-6.05,1.65-11.98,3.77-17.73,6.33l28.84,52.95,22.47,27.17,22.47-27.17,28.84-52.95c-5.76-2.57-11.69-4.68-17.73-6.33,0,.27.01.55.01.83h0Z"/>
  <path class="cls-2" d="M190.82,203.93c-18.93.03-34.92-12.62-39.95-29.93-5.52,5.36-11.04,10.73-16.56,16.1,11.63,7.57,17.8,14.62,16.55,29.23.54.47,1.09.94,1.65,1.4,6.79,2.43,14.15,3.66,21.79,3.45,33.89-.95,59.34-29.19,58-62.81.31,23.39-17.9,42.55-41.47,42.58h0Z"/>
  <path class="cls-2" d="M71.38,203.93c18.93.03,34.92-12.62,39.95-29.93,5.52,5.36,11.04,10.73,16.56,16.1-11.63,7.57-17.8,14.62-16.55,29.23-.54.47-1.09.94-1.65,1.4-6.79,2.43-14.15,3.66-21.79,3.45-33.89-.95-59.34-29.19-58-62.81-.31,23.39,17.9,42.55,41.47,42.58h0Z"/>
  <path class="cls-6" d="M131.1,248c-7.27-11.54-12.99-21.31-17.28-29.67-.15-.29-.29-.58-.44-.87-.74-1.46-1.44-2.88-2.09-4.25-.14,1.88-.12,3.91.07,6.1.04.42.08.85.13,1.28,1.35,12.1,7.55,29.25,19.62,55.64,12.07-26.39,18.27-43.53,19.62-55.64.05-.43.09-.86.13-1.28.19-2.2.21-4.22.07-6.1-.65,1.38-1.35,2.79-2.09,4.25-.15.29-.29.57-.44.87-4.29,8.35-10.01,18.13-17.28,29.67h0Z"/>
</svg>